<svg xmlns="http://www.w3.org/2000/svg" version="1.1" xmlns:xlink="http://www.w3.org/1999/xlink" width="1000" height="1000"><g clip-path="url(#SvgjsClipPath1189)"><rect width="1000" height="1000" fill="#ffffff"></rect><g transform="matrix(5.882352941176471,0,0,5.882352941176471,-5.684341886080802e-14,-5.684341886080802e-14)"><svg xmlns="http://www.w3.org/2000/svg" version="1.1" xmlns:xlink="http://www.w3.org/1999/xlink" width="170" height="170"><svg preserveAspectRatio="xMinYMin meet" xmlns="http://www.w3.org/2000/svg" width="170" height="170" viewBox="0 0 170 170" shape-rendering="crispEdges"><path d="M40 0h20v5H40V0zm-5 5h5v25h-5V5z" fill="#FFF"></path><path d="M40 5h15v5H45v10h-5V5z" fill="#192B3E"></path><path d="M55 5h5v5h-5V5z"></path><path d="M60 5h15v5H60V5z" fill="#FFF"></path><path d="M45 10h15v15H50v-5h-5V10z" fill="#FF993E"></path><path d="M60 10h5v5h-5v-5z" fill="#192B3E"></path><path d="M65 10h10v5H65v-5z"></path><path d="M75 10h15v5H75v-5z" fill="#FFF"></path><path d="M60 15h5v15h-5V15z" fill="#69B2FF"></path><path d="M65 15h10v15H65V15z" fill="#FF993E"></path><path d="M75 15h5v5h-5v-5z" fill="#192B3E"></path><path d="M80 15h10v5H80v-5z"></path><path d="M90 15h20v5H90v-5z" fill="#FFF"></path><path d="M40 20h5v5h15v5H50v5h-5v-5h-5V20z"></path><path d="M45 20h5v5h-5v-5z" fill="#3F6B99"></path><path d="M75 20h5v15h-5V20z" fill="#69B2FF"></path><path d="M80 20h5v15h-5V20z" fill="#FF993E"></path><path d="M85 20h5v5h15v10h-5v5H90v-5h-5V20z" fill="#69B2FF"></path><path d="M90 20h5v5h-5v-5z" fill="#192B3E"></path><path d="M95 20h15v5H95v-5z"></path><path d="M110 20h10v5h-10v-5z" fill="#FFF"></path><path d="M105 25h5v5h-5v-5z" fill="#192B3E"></path><path d="M110 25h10v5h-10v-5z"></path><path d="M120 25h5v5h-5v-5zm-80 5h5v5h-5v-5z" fill="#FFF"></path><path d="M50 30h10v5h15v5h15v5h15v5h5v5h5v45h-5v5h-5v5h-5v-5h-5v5h5v5h-5v5H85v-5H70v-5H55v-5h5v-5h-5V85h5V40h-5v-5h-5v-5z" fill="#192B3E"></path><path d="M60 30h15v5H60v-5zm45 0h5v10h-5V30z"></path><path d="M110 30h10v5h5v5h5v5h5v95h-5v5h-10v5h-10v5h-10v5h-5v-40h5v-5h5v-5h5v-5h10V55h-5v-5h-5V30z" fill="#3F6B99"></path><path d="M120 30h5v5h-5v-5z"></path><path d="M125 30h5v5h-5v-5zm-80 5h5v5h-5v-5z" fill="#FFF"></path><path d="M50 35h5v5h-5v-5zm25 0h15v5H75v-5z"></path><path d="M100 35h5v5h-5v-5z" fill="#3F6B99"></path><path d="M125 35h5v5h-5v-5z"></path><path d="M130 35h5v5h-5v-5zm-80 5h5v40h-5V40z" fill="#FFF"></path><path d="M55 40h5v45H50v-5h5V40zm35 0h15v5H90v-5z"></path><path d="M105 40h5v5h-5v-5z" fill="#192B3E"></path><path d="M130 40h5v5h-5v-5z"></path><path d="M135 40h5v5h-5v-5z" fill="#FFF"></path><path d="M70 45h5v5h-5v-5z" fill="#3F6B99"></path><path d="M75 45h5v5h-5v-5zm30 0h5v5h-5v-5zm30 0h5v95h-5V45z"></path><path d="M140 45h5v95h-5V45z" fill="#FFF"></path><path d="M65 50h5v10h-5V50z" fill="#3F6B99"></path><path d="M70 50h10v5h-5v10h-5V50z" fill="#FFF5E4"></path><path d="M80 50h15v5H80v-5zm30 0h5v5h-5v-5z"></path><path d="M75 55h20v5H75v-5z" fill="#FFB73E"></path><path d="M95 55h10v5H95v-5zm20 0h5v45h-5V55zm-50 5h5v25h-5V60z"></path><path d="M75 60h5v5h-5v-5z" fill="#3F6B99"></path><path d="M80 60h25v5H80v-5z" fill="#FF993E"></path><path d="M105 60h5v35h-5V60z"></path><path d="M70 65h5v5h-5v-5z" fill="#FFB73E"></path><path d="M75 65h5v5h-5v-5z" fill="#192B3E"></path><path d="M80 65h15v5H80v-5z" fill="#FFB73E"></path><path d="M95 65h5v5h-5v-5z" fill="#3F6B99"></path><path d="M100 65h5v5h-5v-5z" fill="#FFB73E"></path><path d="M70 70h5v5h-5v-5z" fill="#FFF5E4"></path><path d="M75 70h20v5H75v-5z" fill="#FF993E"></path><path d="M95 70h5v5h-5v-5z" fill="#192B3E"></path><path d="M100 70h5v5h-5v-5z" fill="#FF993E"></path><path d="M70 75h5v5h-5v-5z" fill="#FFB73E"></path><path d="M75 75h5v5h-5v-5z" fill="#3F6B99"></path><path d="M80 75h25v5H80v-5z" fill="#FFB73E"></path><path d="M45 80h5v5h-5v-5z" fill="#FFF"></path><path d="M70 80h10v5H70v-5z" fill="#FF993E"></path><path d="M80 80h5v5h-5v-5z" fill="#3F6B99"></path><path d="M85 80h5v5h-5v-5z" fill="#192B3E"></path><path d="M90 80h15v5H90v-5z" fill="#FF993E"></path><path d="M40 85h5v5h-5v-5z" fill="#FFF"></path><path d="M45 85h5v5h5v5H45V85z" fill="#A60000"></path><path d="M50 85h5v5h-5v-5z" fill="#FFF5E4"></path><path d="M70 85h10v5H70v-5z"></path><path d="M80 85h25v5H80v-5z" fill="#FFB73E"></path><path d="M30 90h10v5H30v-5z" fill="#FFF"></path><path d="M40 90h5v5h-5v-5zm40 0h10v5H80v-5z"></path><path d="M90 90h15v5H90v-5z" fill="#FF993E"></path><path d="M25 95h5v50h-5V95z" fill="#FFF"></path><path d="M30 95h5v15h-5V95z" fill="#192B3E"></path><path d="M35 95h5v5h5v5H35V95z"></path><path d="M40 95h10v5h5v5H45v-5h-5v-5z" fill="#192B3E"></path><path d="M50 95h5v5h-5v-5z" fill="#69B2FF"></path><path d="M65 95h5v5h-5v-5zm10 0h5v5h5v5H75V95z" fill="#A60000"></path><path d="M80 95h5v5h-5v-5z" fill="#FFF5E4"></path><path d="M90 95h15v5H90v-5z"></path><path d="M55 100h5v5h-5v-5z" fill="#A60000"></path><path d="M110 100h5v5h-5v-5z"></path><path d="M115 100h5v5h-5v-5z" fill="#192B3E"></path><path d="M35 105h5v5h-5v-5z" fill="#3F6B99"></path><path d="M40 105h5v5h5v15h-5v5h5v15H40v-10h-5v-25h5v-5z" fill="#FF993E"></path><path d="M45 105h10v5H45v-5z"></path><path d="M80 105h5v5h-5v-5z" fill="#69B2FF"></path><path d="M95 105h5v5h-5v-5z" fill="#A60000"></path><path d="M105 105h5v5h-5v-5zm-75 5h5v30h5v5H30v-35z"></path><path d="M50 110h5v35h-5v-35z" fill="#69B2FF"></path><path d="M55 110h15v5H55v-5z"></path><path d="M85 110h5v5h-5v-5z" fill="#A60000"></path><path d="M100 110h5v5h-5v-5z"></path><path d="M55 115h10v35H55v-15h5v-5h-5v-15z" fill="#FF993E"></path><path d="M65 115h5v20h-5v-20z" fill="#69B2FF"></path><path d="M70 115h15v5H70v-5zm25 0h5v5h-5v-5z"></path><path d="M70 120h5v35h-5v-35z" fill="#FF993E"></path><path d="M75 120h5v5h5v5h5v25H75v-35z" fill="#69B2FF"></path><path d="M80 120h5v5h-5v-5z" fill="#3F6B99"></path><path d="M85 120h10v10h-5v-5h-5v-5z"></path><path d="M45 125h5v5h-5v-5z" fill="#192B3E"></path><path d="M85 125h5v5h-5v-5z" fill="#3F6B99"></path><path d="M55 130h5v5h-5v-5zm35 0h5v25h-5v-25z" fill="#192B3E"></path><path d="M35 135h5v5h-5v-5z" fill="#3F6B99"></path><path d="M65 135h5v5h-5v-5z" fill="#192B3E"></path><path d="M65 140h5v10h-5v-10z" fill="#69B2FF"></path><path d="M130 140h5v5h-5v-5z"></path><path d="M135 140h5v5h-5v-5zm-105 5h10v5H30v-5z" fill="#FFF"></path><path d="M40 145h15v5H40v-5zm80 0h10v5h-10v-5z"></path><path d="M130 145h5v5h-5v-5zm-90 5h15v5H40v-5z" fill="#FFF"></path><path d="M55 150h15v5H55v-5zm55 0h10v5h-10v-5z"></path><path d="M120 150h10v5h-10v-5zm-65 5h15v5H55v-5z" fill="#FFF"></path><path d="M70 155h15v5H70v-5z"></path><path d="M85 155h5v5h-5v-5z" fill="#3F6B99"></path><path d="M90 155h5v5h5v5H85v-5h5v-5zm10 0h10v5h-10v-5z"></path><path d="M110 155h10v5h-10v-5zm-40 5h15v5H70v-5zm30 0h10v5h-10v-5zm-15 5h15v5H85v-5z" fill="#FFF"></path></svg></svg></g></g><defs><clipPath id="SvgjsClipPath1189"><rect width="1000" height="1000" x="0" y="0" rx="150" ry="150"></rect></clipPath></defs></svg>